<?xml version="1.0" encoding="UTF-8" standalone="no"?>
<!-- Created with Inkscape (http://www.inkscape.org/) -->

<svg
   width="98.923988mm"
   height="98.923965mm"
   viewBox="0 0 98.923988 98.923965"
   version="1.1"
   id="svg1"
   xml:space="preserve"
   xmlns="http://www.w3.org/2000/svg"
   xmlns:svg="http://www.w3.org/2000/svg"><defs
     id="defs1" /><g
     id="layer2"
     transform="translate(-177.30635,-35.947781)"><g
       id="g2"
       transform="matrix(0.624975,0,0,0.624975,166.17436,-60.502883)"
       style="fill:#ffffff;fill-opacity:1;stroke:#ffffff;stroke-width:4.74828;stroke-dasharray:none;stroke-opacity:1"><g
         id="path1-8"
         style="opacity:1;fill:#ffffff;fill-opacity:1;stroke:none;stroke-opacity:1"
         transform="translate(-120.09324,250.98623)"><path
           style="baseline-shift:baseline;display:inline;overflow:visible;vector-effect:none;fill:#ffffff;fill-opacity:1;stroke:none;stroke-opacity:1;enable-background:accumulate;stop-color:#000000;stop-opacity:1"
           d="m 163.38067,30.53847 c -1.59583,-3.85548 0.64181,-5.97888 1.61623,-13.40421 0.97442,-7.42533 3.19048,-24.08181 4.35547,-34.72724 1.16498,-10.64544 1.70195,-22.36489 1.95396,-31.03936 0.25201,-8.67447 -0.46024,-12.61857 -1.16039,-17.20595 -0.70015,-4.58739 0.0626,-12.15521 2.607,-9.88913 6.46283,26.31172 -5.41514,99.70279 -5.66739,102.27873 -0.25225,2.57594 -2.10905,7.84264 -3.70488,3.98716 z m 9.73893,-97.46388 c 0.36045,-4.47238 2.55594,14.4368 2.37545,25.39066 -0.18049,10.95385 -1.90285,24.74505 -3.22366,34.96186 -1.32081,10.21681 -2.25948,17.96648 -3.21356,22.90151 -0.95408,4.93503 -3.4313,13.42853 -3.39166,12.93665 0.0396,-0.49188 7.09298,-91.71829 7.45343,-96.19068 z"
           id="path5" /><path
           style="baseline-shift:baseline;display:inline;overflow:visible;vector-effect:none;fill:#ffffff;fill-opacity:1;stroke:none;stroke-opacity:1;enable-background:accumulate;stop-color:#000000;stop-opacity:1"
           d="m 171.89062,-78.515625 c -1.03647,-0.0039 -1.96552,0.571583 -2.47851,1.138672 -1.02598,1.134178 -1.26132,2.287157 -1.50977,3.574219 -0.49688,2.574124 -0.50237,5.708961 -0.10351,8.322265 0.70576,4.624138 1.3824,8.255502 1.13476,16.779297 -0.0966,3.326211 -0.28607,7.341913 -0.48632,11.330078 -0.62836,8.10823 -0.81523,10.472955 -1.54102,19.84961 -0.0263,0.339652 -0.046,0.588359 -0.0723,0.927734 -1.18764,10.6088564 -3.25153,26.2578754 -4.1914,33.419922 -0.46051,3.509158 -1.20197,5.679439 -1.72266,7.777344 -0.52069,2.097904 -0.7392,4.41139 0.26758,6.84375 0.26711,0.645339 0.56198,1.210656 1.05859,1.746093 0.49661,0.535438 1.3443,1.064516 2.30274,1.083985 0.95843,0.01947 1.71891,-0.420952 2.19336,-0.832032 0.47445,-0.411079 0.7712,-0.836195 1.02929,-1.265625 1.03237,-1.717717 1.51184,-3.702371 1.67774,-5.396484 -0.003,0.03319 0.22964,-1.635505 0.5664,-3.943359 0.0355,-0.243363 0.10048,-0.721692 0.13868,-0.984375 0.44491,-1.762201 0.94104,-3.558904 1.23437,-5.076172 0.98692,-5.104881 1.91675,-12.8396144 3.23633,-23.0468751 1.32199,-10.2259589 3.06009,-24.0587189 3.24414,-35.2285159 0.0932,-5.657983 -0.41894,-13.149243 -0.99805,-18.761718 -0.0113,-0.109932 -0.0218,-0.149463 -0.0332,-0.257813 -0.24702,-5.953636 -0.72335,-11.478347 -1.7793,-15.777344 L 174.88281,-77.009766 174.33203,-77.5 c -0.5851,-0.521104 -1.40493,-1.011768 -2.44141,-1.015625 z"
           id="path6" /></g><g
         id="path1-2-2"
         style="opacity:1;fill:#ffffff;fill-opacity:1;stroke:none;stroke-opacity:1"
         transform="translate(-120.09324,250.98623)"><path
           style="baseline-shift:baseline;display:inline;overflow:visible;vector-effect:none;fill:#ffffff;fill-opacity:1;stroke:none;stroke-opacity:1;enable-background:accumulate;stop-color:#000000;stop-opacity:1"
           d="m 257.40533,-53.54848 c -1.24889,0.0254 -1.78084,2.95491 -1.64544,4.52538 0.0236,0.27338 0.0517,1.5593 0.10749,3.6299 -0.17586,1.62144 -0.32085,3.29794 -0.36299,4.63783 -0.12555,3.99157 0.22887,10.18594 0.61435,18.36365 0.3855,8.17772 0.96608,19.20911 2.59799,27.8146 0.77509,4.08722 2.37461,9.50962 3.80023,13.69687 1.26182,5.03957 2.76424,9.43253 4.55349,12.73111 2.88386,1.44139 2.38534,-4.58787 0.93683,-8.08996 -1.4485,-3.50208 -2.80235,-6.49817 -3.9871,-13.32727 -0.40853,-2.35479 -0.84305,-4.99755 -1.26261,-7.79808 -0.63947,-5.71316 -1.3435,-11.99459 -2.03737,-18.18917 -0.57201,-8.49607 -1.09208,-20.7409 -1.34364,-26.36596 -0.26587,-5.94527 1.58997,-7.90246 -0.62097,-10.71357 -0.51819,-0.65886 -0.96794,-0.92311 -1.35026,-0.91533 z"
           id="path7" /><path
           style="baseline-shift:baseline;display:inline;overflow:visible;vector-effect:none;fill:#ffffff;fill-opacity:1;stroke:none;stroke-opacity:1;enable-background:accumulate;stop-color:#000000;stop-opacity:1"
           d="m 257.35742,-55.921875 c -1.23639,0.02515 -2.18376,0.807328 -2.66601,1.460938 -0.48226,0.653609 -0.71983,1.291417 -0.90625,1.929687 -0.37285,1.27654 -0.49204,2.536693 -0.39063,3.712891 -0.0169,-0.195227 0.0412,1.398182 0.0957,3.382812 -0.16913,1.58776 -0.31582,3.220784 -0.35937,4.605469 -0.13239,4.209041 0.23227,10.385114 0.61719,18.550781 0.38605,8.189402 0.95481,19.2754119 2.63672,28.1445314 0.81487,4.2970086 2.43222,9.7531986 3.88476,14.0195316 1.28025,5.07257 2.79514,9.558582 4.71484,13.097656 l 0.35547,0.658203 0.66993,0.333984 c 0.64428,0.322023 1.42013,0.553236 2.29492,0.439453 0.87479,-0.113782 1.70783,-0.648225 2.18164,-1.236328 0.94761,-1.176205 1.01559,-2.311794 1.05078,-3.445312 0.0704,-2.267037 -0.46453,-4.772083 -1.33594,-6.878906 -1.46541,-3.542961 -2.68912,-6.181973 -3.8418,-12.826172 -0.40391,-2.3281771 -0.83349,-4.9423839 -1.24804,-7.7070315 -0.63553,-5.6779198 -1.3342,-11.9131583 -2.02344,-18.0664065 -0.56738,-8.43867 -1.08826,-20.653623 -1.33984,-26.279297 -0.1214,-2.714726 0.23611,-4.409539 0.41015,-6.195312 0.17404,-1.785774 -0.0666,-4.011146 -1.53711,-5.880859 -0.74015,-0.941084 -1.7502,-1.851111 -3.26367,-1.820313 z"
           id="path8" /></g><path
         style="fill:#ffffff;fill-opacity:1;stroke:#ffffff;stroke-width:4.74828;stroke-linecap:round;stroke-linejoin:round;stroke-dasharray:none;stroke-opacity:1"
         d="M 45.610101,280.3258 147.83951,278.66722"
         id="path4-4" /><path
         style="fill:#ffffff;fill-opacity:1;stroke:#ffffff;stroke-width:4.74828;stroke-linecap:round;stroke-linejoin:round;stroke-dasharray:none;stroke-opacity:1"
         d="m 53.164311,199.15818 85.012959,21.73266"
         id="path4-5-5" /><path
         d="m 71.019891,263.50219 c -0.20803,-5.45284 2.66301,-10.46517 5.97788,-14.58326 2.63948,-0.38383 1.02675,3.26835 0.43694,4.55091 -1.18875,3.11918 -2.23629,6.30601 -3.63393,9.33693 -0.52235,0.90433 -2.08254,2.11034 -2.78089,0.69542 z m 16.41217,-0.69264 c -2.16273,-3.0098 -1.91293,-6.92195 -2.08792,-10.44208 0.50808,-2.17612 -0.44499,-5.74688 1.54226,-6.94013 1.85287,1.12412 0.81421,3.91988 1.55049,5.70721 0.56533,3.31988 1.66086,6.65091 1.41667,10.03889 -0.25555,1.01235 -1.26551,2.21614 -2.4215,1.63611 z"
         style="fill:#ffffff;fill-opacity:1;stroke:#ffffff;stroke-width:3.20013;stroke-dasharray:none;stroke-opacity:1"
         id="path1-6-5" /></g></g></svg>
